<?xml version="1.0" encoding="utf-8"?>
<!-- Generator: Adobe Illustrator 27.2.0, SVG Export Plug-In . SVG Version: 6.00 Build 0)  -->
<svg version="1.1" id="Capa_2_00000083779051588679831860000018080805695383417216_"
	 xmlns="http://www.w3.org/2000/svg" xmlns:xlink="http://www.w3.org/1999/xlink" x="0px" y="0px" viewBox="0 0 385 406.7"
	 style="enable-background:new 0 0 385 406.7;" xml:space="preserve">
<style type="text/css">
	.st0{fill:#1D71B8;}
	.st1{fill:#E30613;}
	.st2{fill:#FFDE00;}
</style>
<g id="Capa_1-2">
	<g>
		<g>
			<g>
				<rect x="18.2" y="386" class="st0" width="88" height="20.6"/>
				<rect x="106.2" y="386" class="st1" width="88.1" height="20.6"/>
				<rect x="194.3" y="386" class="st0" width="88" height="20.6"/>
				<rect x="282.3" y="386" class="st1" width="88" height="20.6"/>
			</g>
			<g>
				<path class="st0" d="M254.9,210.1l-38.8-67.2c9.9-6.9,16.4-18.4,16.4-31.4c0-21.1-17.1-38.3-38.3-38.3S156,90.3,156,111.5
					c0,13,6.5,24.5,16.4,31.4l-38.8,67.2l-60.7,96.6c94.7,66.5,203.4,31.9,242.7,0L254.9,210.1z"/>
				<path class="st1" d="M194.3,9.8C97,9.8,18.2,88.6,18.2,185.9S97,362,194.3,362s176.1-78.8,176.1-176.1S291.5,9.8,194.3,9.8z
					 M194.3,337.9c-83.9,0-152-68.1-152-152s68.1-152,152-152s152,68.1,152,152S278.2,337.9,194.3,337.9z"/>
				<path class="st2" d="M336.1,185.9H249c-24.8,53-92.6,46.1-112.3,0H60c-3.5,0-3.6,25.9,0,25.9h61.4c28.9,55.5,123.7,45,144.9,0
					h19.7c13.8,31.2,44.5,26.6,52.3,0C341.8,199.9,336.1,185.9,336.1,185.9L336.1,185.9z"/>
			</g>
		</g>
	</g>
</g>
</svg>
