<svg width="585"
     height="488"
     viewBox="0 0 585 488"
     fill="none"
     xmlns="http://www.w3.org/2000/svg">
    <g clip-path="url(#clip0_0_1)">
        <rect width="584"
              height="488" />
        <path d="M206.22 467.03H118.18V487.66H206.22V467.03Z"
              fill="#1D71B8" />
        <path d="M294.27 467.03H206.22V487.66H294.27V467.03Z"
              fill="#E30613" />
        <path d="M382.31 467.03H294.27V487.66H382.31V467.03Z"
              fill="#1D71B8" />
        <path d="M470.34 467.03H382.31V487.66H470.34V467.03Z"
              fill="#E30613" />
        <path d="M354.94 291.06L316.15 223.87C326.05 216.95 332.55 205.48 332.55 192.47C332.55 171.32 315.41 154.18 294.27 154.18C273.13 154.18 255.98 171.32 255.98 192.47C255.98 205.47 262.47 216.94 272.39 223.86L233.58 291.06L172.9 387.7C267.57 454.19 376.26 419.61 415.61 387.7L354.94 291.06Z"
              fill="#1D71B8" />
        <path d="M294.27 90.78C197.02 90.78 118.18 169.62 118.18 266.87C118.18 364.12 197.02 442.95 294.27 442.95C391.52 442.95 470.34 364.12 470.34 266.87C470.34 169.62 391.51 90.78 294.27 90.78ZM294.27 418.88C210.32 418.88 142.25 350.82 142.25 266.87C142.25 182.92 210.32 114.85 294.27 114.85C378.22 114.85 446.27 182.91 446.27 266.87C446.27 350.83 378.22 418.88 294.27 418.88Z"
              fill="#E30613" />
        <path d="M436.07 266.87H348.95C324.19 319.84 256.33 312.95 236.61 266.87H160.03C156.51 266.87 156.41 292.78 160.03 292.78H221.48C250.36 348.26 345.16 337.73 366.38 292.78H386.09C399.85 323.96 430.58 319.37 438.37 292.78C441.84 280.93 436.08 266.87 436.08 266.87H436.07Z"
              fill="#FFDE00" />
        <path d="M91.13 438.46L48.91 446.73L42.83 437.2L68.78 403.4L73.73 411.17L67.29 419.31L75.98 432.96L86.18 430.69L91.14 438.46H91.13ZM70.81 434.33L63.77 423.3L50.54 439.26L50.62 439.39L70.81 434.33Z"
              fill="#1D1D1B" />
        <path d="M37.58 385.25L40.81 392.46L40.09 392.78C37.26 394.05 36.6 396.36 38.1 399.71C39.73 403.33 41.74 404.6 44.13 403.53C45.19 403.06 45.82 402.32 46.04 401.31C46.26 400.3 46.16 398.64 45.74 396.34L44.77 390.92C44.2 387.73 44.23 385.19 44.86 383.32C45.5 381.45 46.87 380.04 48.98 379.09C51.78 377.85 54.5 378.19 57.15 380.17C59.55 381.92 61.66 384.85 63.5 388.95C65.56 393.51 66.26 397.13 65.61 399.8C65.09 402.19 63.41 404.02 60.58 405.29L59.56 405.75L56.51 398.97L57.38 398.58C60.65 397.1 61.4 394.4 59.62 390.44C57.76 386.3 55.48 384.83 52.79 386.04C50.81 386.93 50.08 388.92 50.62 392.02L51.83 398.96C52.39 402.21 52.36 404.73 51.73 406.51C51.1 408.29 49.7 409.67 47.56 410.64C45.04 411.77 42.62 411.48 40.32 409.74C38.02 408 35.97 405.11 34.15 401.06C30.58 393.16 31.32 388.07 36.33 385.82L37.56 385.26L37.58 385.25Z"
              fill="#1D1D1B" />
        <path d="M40.56 375.7C35.68 377.14 31.72 377.17 28.66 375.82C25.13 374.27 22.56 370.79 20.95 365.34C19.33 359.84 19.59 355.49 21.72 352.29C23.55 349.49 26.91 347.36 31.77 345.93C41.92 342.93 48.46 346.42 51.4 356.37C54.31 366.27 50.7 372.71 40.55 375.71L40.56 375.7ZM38.19 367.67C42.14 366.51 44.76 365.28 46.05 363.98C47.56 362.46 47.91 360.34 47.1 357.62C46.28 354.85 44.84 353.23 42.75 352.77C40.96 352.39 38.08 352.77 34.15 353.94C30.52 355.01 28.03 356.2 26.67 357.51C24.93 359.15 24.46 361.34 25.26 364.06C26.05 366.73 27.62 368.29 29.96 368.72C31.83 369.09 34.58 368.74 38.19 367.67Z"
              fill="#1D1D1B" />
        <path d="M31.16 316.82L29.99 309.01C33.85 308.75 36.85 309.48 38.99 311.2C41.43 313.14 43.02 316.54 43.74 321.4C44.57 327.03 43.72 331.29 41.17 334.19C38.97 336.71 35.35 338.35 30.33 339.09C25.3 339.84 21.36 339.33 18.53 337.56C15.27 335.54 13.21 331.73 12.35 326.11C11.51 320.7 12.23 316.6 14.54 313.8C16.11 311.9 18.25 310.74 20.95 310.34L22.18 318.62C17.96 319.25 16.16 321.52 16.78 325.46C17.22 328.2 18.57 329.97 20.79 330.72C22.59 331.35 25.35 331.38 29.09 330.82C32.83 330.27 35.46 329.43 37 328.31C38.94 326.92 39.71 324.83 39.3 322.07C38.71 317.85 36 316.1 31.16 316.82Z"
              fill="#1D1D1B" />
        <path d="M6.43 302.29L0.38 302.57L0 294.22L6.05 293.94L6.43 302.29ZM40.78 300.71L10.65 302.1L10.26 293.75L40.4 292.36L40.79 300.71H40.78Z"
              fill="#1D1D1B" />
        <path d="M17.97 255.39L35.25 256.37C36.67 256.45 37.42 255.76 37.51 254.32C37.54 253.7 37.49 253.23 37.36 252.92L41.33 253.14C41.74 254.61 41.9 255.99 41.84 257.27C41.58 261.75 40.12 264.02 37.42 264.08V264.24C40.22 266.62 41.5 270.15 41.25 274.85C40.85 282.07 37.81 285.51 32.18 285.19C29.09 285.02 26.85 283.99 25.5 282.11C24.5 280.71 23.74 278.34 23.25 275L22.33 268.43C22.09 266.72 21.77 265.5 21.36 264.81C20.85 263.9 19.97 263.41 18.74 263.35C15.76 263.18 14.15 265 13.95 268.82C13.7 273.05 15.5 275.27 19.35 275.49L18.91 283.37C15.59 283.19 13.2 281.99 11.76 279.79C10.17 277.38 9.51999 273.51 9.81999 268.21C10.03 264.24 10.78 261.16 12.03 258.96C13.46 256.44 15.43 255.27 17.97 255.41V255.39ZM30.16 263.98L25.12 263.71C25.56 264.56 26 266.12 26.44 268.36C26.95 271.13 27.27 272.72 27.4 273.14C28.05 275.46 29.61 276.68 32.09 276.82C33.43 276.89 34.52 276.51 35.35 275.68C36.29 274.81 36.81 273.54 36.91 271.89C37.18 266.89 34.94 264.26 30.16 263.98Z"
              fill="#1D1D1B" />
        <path d="M35.66 226.26L37.19 218.5C40.91 219.54 43.5 221.25 44.94 223.58C46.59 226.22 46.95 229.96 46 234.79C44.9 240.37 42.67 244.09 39.29 245.97C36.38 247.61 32.42 247.94 27.45 246.96C22.45 245.98 18.91 244.19 16.83 241.57C14.45 238.57 13.79 234.29 14.85 228.71C15.87 223.33 17.94 219.72 21.04 217.85C23.15 216.59 25.56 216.22 28.23 216.74L26.62 224.95C22.44 224.12 19.98 225.67 19.26 229.58C18.75 232.32 19.43 234.43 21.28 235.9C22.76 237.08 25.35 238.04 29.05 238.76C32.76 239.49 35.52 239.59 37.34 239.04C39.64 238.38 41.06 236.68 41.6 233.93C42.46 229.76 40.48 227.21 35.67 226.27L35.66 226.26Z"
              fill="#1D1D1B" />
        <path d="M17.25 204.25L11.46 202.47L13.9 194.48L19.69 196.25L17.24 204.25H17.25ZM50.14 214.3L21.28 205.48L23.73 197.48L52.58 206.29L50.14 214.29V214.3Z"
              fill="#1D1D1B" />
        <path d="M27.38 175.95L21.76 168.52L25.39 159.97L29.61 170.69L27.38 175.96V175.95ZM40.45 193.79C35.78 191.8 32.68 189.32 31.2 186.33C29.46 182.89 29.69 178.56 31.91 173.33C34.16 168.06 37.11 164.85 40.8 163.73C43.99 162.73 47.93 163.22 52.6 165.21C62.34 169.35 65.18 176.19 61.12 185.74C57.09 195.25 50.2 197.93 40.45 193.79ZM43.73 186.1C47.52 187.71 50.32 188.42 52.14 188.24C54.27 188.02 55.89 186.61 57 183.99C58.13 181.33 58.03 179.16 56.72 177.47C55.58 176.05 53.12 174.52 49.33 172.91C45.85 171.42 43.18 170.77 41.28 170.92C38.89 171.08 37.14 172.48 36.04 175.08C34.94 177.65 35.17 179.84 36.71 181.68C37.91 183.14 40.25 184.62 43.73 186.1Z"
              fill="#1D1D1B" />
        <path d="M69.49 165.4L43.71 149.74L47.81 142.98L50.82 144.82L50.94 144.62C49.64 141.23 50.25 137.44 52.8 133.24C56.4 127.33 60.53 125.8 65.19 128.63L84.64 140.46L80.29 147.61L62.61 136.85C60.95 135.85 59.52 135.49 58.36 135.81C57.18 136.12 56.05 137.18 54.95 139C54 140.53 53.64 142.1 53.81 143.65C54.02 145.41 54.92 146.78 56.51 147.74L73.82 158.26L69.47 165.4H69.49Z"
              fill="#1D1D1B" />
        <path d="M100.87 118.35L73.02 89.57L82.93 79.99L110.57 94.53L110.68 94.42L96.94 66.43L106.62 57.06L134.47 85.83L128.46 91.65L105.29 67.7L120.36 99.48L114.96 104.69L83.71 88.59L106.87 112.54L100.86 118.35H100.87Z"
              fill="#1D1D1B" />
        <path d="M131.94 69.47C129.11 65.24 127.9 61.47 128.28 58.16C128.7 54.33 131.27 50.83 135.98 47.67C140.74 44.48 144.98 43.43 148.67 44.51C151.89 45.42 154.91 47.99 157.74 52.22C163.63 61.01 162.26 68.29 153.64 74.07C145.05 79.81 137.82 78.28 131.94 69.48V69.47ZM138.89 64.82C141.18 68.24 143.13 70.38 144.75 71.22C146.65 72.21 148.77 71.9 151.14 70.32C153.54 68.71 154.66 66.84 154.48 64.72C154.31 62.9 153.09 60.28 150.79 56.85C148.7 53.71 146.81 51.7 145.15 50.79C143.06 49.62 140.84 49.82 138.49 51.4C136.17 52.95 135.15 54.91 135.44 57.29C135.64 59.17 136.8 61.68 138.9 64.82H138.89Z"
              fill="#1D1D1B" />
        <path d="M171.86 61.55L158.86 34.33L165.98 30.93L167.51 34.12L167.71 34.02C168.48 30.47 171.07 27.63 175.5 25.53C181.74 22.55 186.05 23.53 188.39 28.45L198.19 49L190.64 52.6L181.73 33.92C180.9 32.17 179.9 31.1 178.75 30.72C177.59 30.34 176.06 30.61 174.14 31.52C172.52 32.3 171.35 33.39 170.65 34.8C169.86 36.38 169.86 38.01 170.67 39.69L179.38 57.97L171.84 61.56L171.86 61.55Z"
              fill="#1D1D1B" />
        <path d="M194.07 23.25L192.63 18.99L198.05 17.15L195.28 9.03002L203.2 6.33002L205.97 14.45L212.41 12.25L213.87 16.5L207.42 18.7L213.24 35.79C213.62 36.93 214.15 37.63 214.82 37.89C215.48 38.16 216.5 38.07 217.86 37.6C219.04 37.2 219.97 36.81 220.65 36.41L222.11 40.71C220.56 41.6 218.49 42.49 215.9 43.37C213.01 44.36 210.87 44.61 209.45 44.14C207.8 43.6 206.5 41.95 205.56 39.18L199.5 21.4L194.07 23.26V23.25Z"
              fill="#1D1D1B" />
        <path d="M251.45 19.31L230.2 23.96L230.57 25.66C231.88 31.65 234.8 34.15 239.34 33.16C241.6 32.66 243.16 31.56 244 29.85C244.66 28.48 244.79 26.92 244.4 25.17L252.12 23.49C252.84 26.74 252.12 29.6 250 32.08C247.87 34.56 244.58 36.27 240.15 37.25C235.76 38.21 232.28 38.13 229.72 37.01C225.87 35.36 223.29 31.5 221.96 25.44C219.64 14.81 223.49 8.40001 233.52 6.20001C238.92 5.02001 242.99 5.35001 245.71 7.21001C248.12 8.79001 249.8 11.8 250.77 16.21L251.45 19.33V19.31ZM229.31 19.9L242.39 17.04L242.04 15.45C241.08 11.07 238.51 9.34001 234.33 10.25C229.8 11.24 228.08 14.26 229.18 19.3L229.31 19.9Z"
              fill="#1D1D1B" />
        <path d="M285.59 9.1L277.71 9.72L277.64 8.93C277.4 5.84 275.45 4.43 271.79 4.73C267.83 5.05 265.97 6.51 266.17 9.11C266.26 10.27 266.74 11.12 267.61 11.67C268.49 12.22 270.07 12.68 272.39 13.06L277.82 13.98C281.02 14.51 283.4 15.39 284.94 16.62C286.49 17.84 287.36 19.62 287.54 21.92C287.78 24.97 286.52 27.42 283.77 29.25C281.31 30.91 277.84 31.92 273.37 32.27C268.38 32.67 264.73 32.11 262.44 30.6C260.36 29.3 259.21 27.11 258.97 24.01L258.88 22.89L266.29 22.31L266.38 23.26C266.65 26.84 268.96 28.46 273.28 28.11C277.81 27.75 279.95 26.1 279.73 23.15C279.55 20.99 277.92 19.64 274.82 19.1L267.89 17.9C264.63 17.34 262.27 16.46 260.8 15.26C259.34 14.07 258.5 12.29 258.32 9.94C258.1 7.19 259.21 5.01 261.61 3.43C264.02 1.85 267.44 0.889997 271.86 0.539997C280.5 -0.150003 285.05 2.25 285.48 7.74L285.6 9.08L285.59 9.1Z"
              fill="#1D1D1B" />
        <path d="M321.13 10.25L313.24 9.87001L313.27 9.09001C313.42 5.99001 311.67 4.35001 308.01 4.17001C304.04 3.97001 301.99 5.19001 301.87 7.80001C301.8 8.96001 302.18 9.87001 302.97 10.52C303.77 11.18 305.28 11.85 307.54 12.51L312.8 14.12C315.91 15.06 318.15 16.23 319.52 17.65C320.91 19.07 321.54 20.93 321.43 23.24C321.27 26.31 319.71 28.57 316.76 30.03C314.1 31.37 310.54 31.92 306.05 31.71C301.05 31.46 297.51 30.45 295.43 28.67C293.55 27.12 292.67 24.79 292.82 21.7L292.87 20.57L300.29 20.94L300.25 21.89C300.07 25.47 302.16 27.37 306.49 27.59C311.02 27.81 313.37 26.44 313.51 23.48C313.62 21.31 312.16 19.77 309.16 18.83L302.44 16.77C299.28 15.8 297.05 14.62 295.75 13.25C294.45 11.88 293.85 10.02 293.97 7.66001C294.09 4.90001 295.46 2.89001 298.05 1.62001C300.64 0.360009 304.16 -0.159991 308.59 0.0500087C317.26 0.470009 321.45 3.42001 321.18 8.92001L321.12 10.26L321.13 10.25Z"
              fill="#1D1D1B" />
        <path d="M328.47 17.27C329.4 12.26 331.17 8.71002 333.76 6.61002C336.74 4.16002 341 3.45002 346.6 4.49002C352.23 5.53002 355.99 7.73002 357.89 11.09C359.57 13.99 359.93 17.93 358.99 22.94C357.06 33.34 351 37.58 340.79 35.69C330.64 33.8 326.53 27.66 328.47 17.26V17.27ZM336.7 18.79C335.95 22.84 335.85 25.73 336.42 27.48C337.09 29.51 338.82 30.78 341.62 31.29C344.47 31.82 346.56 31.26 347.92 29.62C349.08 28.19 350.04 25.46 350.79 21.42C351.48 17.71 351.55 14.94 351 13.12C350.32 10.83 348.58 9.42002 345.79 8.91002C343.05 8.40002 340.95 9.10002 339.49 10.99C338.33 12.49 337.4 15.09 336.71 18.8L336.7 18.79Z"
              fill="#1D1D1B" />
        <path d="M362.37 39.74L371.37 10.94L379.34 13.44L377.94 17.94C380.97 15.06 384.64 14.28 388.93 15.62C389.54 15.81 390.15 16.09 390.82 16.45L388.97 22.34C387.86 21.75 386.78 21.3 385.75 20.97C380.42 19.31 377.09 20.66 375.73 25.01L370.34 42.25L362.36 39.75L362.37 39.74Z"
              fill="#1D1D1B" />
        <path d="M385.85 47.63L397.2 19.67L404.95 22.82L393.6 50.78L385.85 47.63ZM398.78 15.77L401.06 10.16L408.82 13.31L406.54 18.91L398.79 15.77H398.78Z"
              fill="#1D1D1B" />
        <path d="M436.06 73.77L438.04 70.65L437.92 70.56C434.92 72.2 431.53 71.82 427.79 69.45C420.13 64.57 419.2 57.56 425.02 48.41C428.28 43.3 431.7 40.44 435.31 39.79C437.98 39.37 440.96 40.2 444.26 42.29C448.19 44.8 450.1 47.71 449.96 51.04L457.15 39.73L464.2 44.22L442.73 78.02L436.07 73.78L436.06 73.77ZM443.97 61.32C446.09 57.98 447.21 55.36 447.31 53.48C447.42 51.19 446.21 49.25 443.69 47.65C441.63 46.35 439.78 46.11 438.11 46.96C436.44 47.81 434.51 49.95 432.32 53.38C430.31 56.54 429.23 59.06 429.07 60.95C428.91 63.25 429.97 65.12 432.29 66.59C434.55 68.02 436.66 68.22 438.62 67.17C440.28 66.27 442.07 64.33 443.98 61.33L443.97 61.32Z"
              fill="#1D1D1B" />
        <path d="M480.49 90.93L463.99 76.74L462.85 78.06C458.86 82.71 458.61 86.55 462.15 89.58C463.9 91.1 465.72 91.66 467.59 91.31C469.08 91.01 470.4 90.17 471.58 88.82L477.56 93.96C475.39 96.49 472.67 97.64 469.42 97.43C466.16 97.22 462.81 95.63 459.37 92.67C455.97 89.74 453.94 86.92 453.29 84.19C452.29 80.13 453.81 75.74 457.86 71.03C464.95 62.78 472.39 62.01 480.18 68.7C484.37 72.3 486.54 75.75 486.7 79.04C486.89 81.91 485.5 85.07 482.56 88.49L480.48 90.92L480.49 90.93ZM466.69 73.6L476.86 82.33L477.91 81.1C480.83 77.7 480.67 74.6 477.42 71.81C473.89 68.78 470.45 69.22 467.09 73.14L466.69 73.6Z"
              fill="#1D1D1B" />
        <path d="M489.44 120.43L522.28 97.55L530.16 108.85L511.38 133.81L511.47 133.93L541.31 124.86L549 135.92L516.13 158.8L511.36 151.94L538.69 132.9L504.93 142.7L500.63 136.53L521.53 108.25L494.2 127.29L489.43 120.43H489.44Z"
              fill="#1D1D1B" />
        <path d="M544.72 187.17L535.71 167.38L534.11 168.1C528.54 170.65 526.71 174.02 528.63 178.25C529.59 180.37 531.01 181.65 532.87 182.12C534.33 182.46 535.88 182.27 537.52 181.52L540.79 188.7C537.76 190.08 534.82 189.99 531.96 188.44C529.08 186.88 526.71 184.04 524.82 179.9C522.96 175.82 522.31 172.39 522.86 169.64C523.66 165.53 526.89 162.2 532.53 159.62C542.44 155.1 549.52 157.52 553.78 166.86C556.07 171.89 556.59 175.93 555.36 178.99C554.33 181.67 551.74 183.95 547.62 185.83L544.71 187.15L544.72 187.17ZM539.48 165.65L545.04 177.83L546.51 177.16C550.59 175.3 551.75 172.42 549.97 168.52C548.04 164.29 544.73 163.25 540.03 165.4L539.47 165.65H539.48ZM555.13 162.26L564.4 163.14L568.26 171.59L557.51 167.47L555.14 162.26H555.13Z"
              fill="#1D1D1B" />
        <path d="M532.91 196.03L551.17 202.45L561.99 187.98L564.61 196.73L556.92 205.83L568.44 209.49L571.02 218.09L553.97 211.88L542.23 227.2L539.63 218.52L548.23 208.35L535.44 204.58L532.9 196.05L532.91 196.03Z"
              fill="#1D1D1B" />
        <path d="M542.77 231.84L572.39 226.09L573.99 234.3L544.36 240.05L542.77 231.84ZM576.52 225.29L582.46 224.14L584.05 232.35L578.1 233.5L576.52 225.29Z"
              fill="#1D1D1B" />
        <path d="M558.78 267.55L559.49 275.42C555.62 275.45 552.67 274.56 550.62 272.71C548.28 270.64 546.91 267.15 546.47 262.26C545.95 256.59 547.06 252.39 549.77 249.65C552.1 247.25 555.8 245.82 560.88 245.37C565.94 244.91 569.83 245.65 572.57 247.58C575.7 249.78 577.52 253.71 578.08 259.36C578.61 264.81 577.63 268.85 575.18 271.52C573.51 273.33 571.3 274.36 568.59 274.6L567.83 266.27C572.08 265.89 574.01 263.72 573.61 259.76C573.33 256.99 572.09 255.15 569.9 254.26C568.15 253.54 565.39 253.35 561.62 253.7C557.86 254.03 555.19 254.72 553.6 255.76C551.58 257.04 550.69 259.06 550.93 261.86C551.29 266.11 553.9 268.01 558.78 267.56V267.55Z"
              fill="#1D1D1B" />
        <path d="M563.74 281.72C568.81 281.95 572.57 283.22 575.01 285.5C577.85 288.11 579.14 292.25 578.87 297.92C578.61 303.66 576.95 307.68 573.89 310.02C571.25 312.07 567.38 312.97 562.32 312.74C551.74 312.26 546.7 306.82 547.19 296.47C547.65 286.15 553.18 281.24 563.76 281.73L563.74 281.72ZM563.34 290.08C559.23 289.88 556.35 290.19 554.72 290.99C552.81 291.94 551.77 293.82 551.65 296.66C551.52 299.55 552.36 301.55 554.18 302.67C555.74 303.62 558.59 304.19 562.68 304.38C566.46 304.56 569.2 304.25 570.92 303.44C573.1 302.46 574.26 300.55 574.38 297.71C574.51 294.93 573.55 292.95 571.47 291.76C569.83 290.81 567.12 290.24 563.34 290.07V290.08Z"
              fill="#1D1D1B" />
        <path d="M545.14 329.51L579.84 354.93L576.96 365.86L534.52 369.71L536.88 360.81L547.24 360.02L551.37 344.38L542.78 338.43L545.14 329.52V329.51ZM555.88 347.24L552.55 359.9L573.26 358.8L573.31 358.65L555.89 347.24H555.88Z"
              fill="#1D1D1B" />
        <path d="M532.32 373.37L539.21 376.08L535.98 384.29L529.08 381.59L532.32 373.38V373.37Z"
              fill="#1D1D1B" />
        <path d="M526.52 419.4L522.35 427.19L521.6 426.79C517.97 424.85 515.65 422.23 514.62 418.92C513.37 414.98 514.18 410.34 517.03 405.01C520.24 399 523.98 395.59 528.23 394.76C532.24 393.92 537.48 395.24 543.98 398.7C550.48 402.17 554.49 405.81 556.02 409.61C557.67 413.66 556.89 418.68 553.68 424.69C548.45 434.48 542.14 437.4 534.76 433.46L534.11 433.11L538.28 425.32L538.86 425.64C543.51 428.13 547.05 427.04 549.46 422.35C551.04 419.32 551.25 416.75 550.1 414.62C548.79 412.16 545.4 409.47 539.97 406.57C534.49 403.65 530.34 402.3 527.5 402.54C524.95 402.71 522.88 404.29 521.27 407.3C518.69 412.12 520.24 416.05 525.91 419.08L526.52 419.4Z"
              fill="#1D1D1B" />
        <path d="M506.33 424.45L512.43 428.64L507.44 435.92L501.34 431.74L506.33 424.46V424.45Z"
              fill="#1D1D1B" />
    </g>
    <defs>
        <clipPath id="clip0_0_1">
            <rect width="584.05"
                  height="487.67"
                  fill="white" />
        </clipPath>
    </defs>
</svg>