<?xml version="1.0" encoding="UTF-8"?><svg id="Capa_2" xmlns="http://www.w3.org/2000/svg" viewBox="0 0 584.05 487.67"><defs><style>.cls-1{fill:#e30613;}.cls-2{fill:#ffde00;}.cls-3{fill:#1d71b8;}.cls-4{fill:#1d1d1b;}</style></defs><g id="Capa_1-2"><g><g><g><rect class="cls-3" x="118.18" y="467.03" width="88.04" height="20.63"/><rect class="cls-1" x="206.22" y="467.03" width="88.05" height="20.63"/><rect class="cls-3" x="294.27" y="467.03" width="88.04" height="20.63"/><rect class="cls-1" x="382.31" y="467.03" width="88.03" height="20.63"/></g><g><path class="cls-3" d="m354.94,291.06l-38.79-67.19c9.9-6.92,16.4-18.39,16.4-31.4,0-21.15-17.14-38.29-38.28-38.29s-38.29,17.14-38.29,38.29c0,13,6.49,24.47,16.41,31.39l-38.81,67.2-60.68,96.64c94.67,66.49,203.36,31.91,242.71,0l-60.67-96.64Z"/><path class="cls-1" d="m294.27,90.78c-97.25,0-176.09,78.84-176.09,176.09s78.84,176.08,176.09,176.08,176.07-78.83,176.07-176.08-78.83-176.09-176.07-176.09Zm0,328.1c-83.95,0-152.02-68.06-152.02-152.01s68.07-152.02,152.02-152.02,152,68.06,152,152.02-68.05,152.01-152,152.01Z"/><path class="cls-2" d="m436.07,266.87h-87.12c-24.76,52.97-92.62,46.08-112.34,0h-76.58c-3.52,0-3.62,25.91,0,25.91h61.45c28.88,55.48,123.68,44.95,144.9,0h19.71c13.76,31.18,44.49,26.59,52.28,0,3.47-11.85-2.29-25.91-2.29-25.91Z"/></g></g><g><path class="cls-4" d="m91.13,438.46l-42.22,8.27-6.08-9.53,25.95-33.8,4.95,7.77-6.44,8.14,8.69,13.65,10.2-2.27,4.96,7.77Zm-20.32-4.13l-7.04-11.03-13.23,15.96.08.13,20.19-5.06Z"/><path class="cls-4" d="m37.58,385.25l3.23,7.21-.72.32c-2.83,1.27-3.49,3.58-1.99,6.93,1.63,3.62,3.64,4.89,6.03,3.82,1.06-.47,1.69-1.21,1.91-2.22.22-1.01.12-2.67-.3-4.97l-.97-5.42c-.57-3.19-.54-5.73.09-7.6.64-1.87,2.01-3.28,4.12-4.23,2.8-1.24,5.52-.9,8.17,1.08,2.4,1.75,4.51,4.68,6.35,8.78,2.06,4.56,2.76,8.18,2.11,10.85-.52,2.39-2.2,4.22-5.03,5.49l-1.02.46-3.05-6.78.87-.39c3.27-1.48,4.02-4.18,2.24-8.14-1.86-4.14-4.14-5.61-6.83-4.4-1.98.89-2.71,2.88-2.17,5.98l1.21,6.94c.56,3.25.53,5.77-.1,7.55-.63,1.78-2.03,3.16-4.17,4.13-2.52,1.13-4.94.84-7.24-.9-2.3-1.74-4.35-4.63-6.17-8.68-3.57-7.9-2.83-12.99,2.18-15.24l1.23-.56Z"/><path class="cls-4" d="m40.56,375.7c-4.88,1.44-8.84,1.47-11.9.12-3.53-1.55-6.1-5.03-7.71-10.48-1.62-5.5-1.36-9.85.77-13.05,1.83-2.8,5.19-4.93,10.05-6.36,10.15-3,16.69.49,19.63,10.44,2.91,9.9-.7,16.34-10.85,19.34Zm-2.37-8.03c3.95-1.16,6.57-2.39,7.86-3.69,1.51-1.52,1.86-3.64,1.05-6.36-.82-2.77-2.26-4.39-4.35-4.85-1.79-.38-4.67,0-8.6,1.17-3.63,1.07-6.12,2.26-7.48,3.57-1.74,1.64-2.21,3.83-1.41,6.55.79,2.67,2.36,4.23,4.7,4.66,1.87.37,4.62.02,8.23-1.05Z"/><path class="cls-4" d="m31.16,316.82l-1.17-7.81c3.86-.26,6.86.47,9,2.19,2.44,1.94,4.03,5.34,4.75,10.2.83,5.63-.02,9.89-2.57,12.79-2.2,2.52-5.82,4.16-10.84,4.9-5.03.75-8.97.24-11.8-1.53-3.26-2.02-5.32-5.83-6.18-11.45-.84-5.41-.12-9.51,2.19-12.31,1.57-1.9,3.71-3.06,6.41-3.46l1.23,8.28c-4.22.63-6.02,2.9-5.4,6.84.44,2.74,1.79,4.51,4.01,5.26,1.8.63,4.56.66,8.3.1,3.74-.55,6.37-1.39,7.91-2.51,1.94-1.39,2.71-3.48,2.3-6.24-.59-4.22-3.3-5.97-8.14-5.25Z"/><path class="cls-4" d="m6.43,302.29l-6.05.28-.38-8.35,6.05-.28.38,8.35Zm34.35-1.58l-30.13,1.39-.39-8.35,30.14-1.39.39,8.35Z"/><path class="cls-4" d="m17.97,255.39l17.28.98c1.42.08,2.17-.61,2.26-2.05.03-.62-.02-1.09-.15-1.4l3.97.22c.41,1.47.57,2.85.51,4.13-.26,4.48-1.72,6.75-4.42,6.81v.16c2.8,2.38,4.08,5.91,3.83,10.61-.4,7.22-3.44,10.66-9.07,10.34-3.09-.17-5.33-1.2-6.68-3.08-1-1.4-1.76-3.77-2.25-7.11l-.92-6.57c-.24-1.71-.56-2.93-.97-3.62-.51-.91-1.39-1.4-2.62-1.46-2.98-.17-4.59,1.65-4.79,5.47-.25,4.23,1.55,6.45,5.4,6.67l-.44,7.88c-3.32-.18-5.71-1.38-7.15-3.58-1.59-2.41-2.24-6.28-1.94-11.58.21-3.97.96-7.05,2.21-9.25,1.43-2.52,3.4-3.69,5.94-3.55Zm12.19,8.59l-5.04-.27c.44.85.88,2.41,1.32,4.65.51,2.77.83,4.36.96,4.78.65,2.32,2.21,3.54,4.69,3.68,1.34.07,2.43-.31,3.26-1.14.94-.87,1.46-2.14,1.56-3.79.27-5-1.97-7.63-6.75-7.91Z"/><path class="cls-4" d="m35.66,226.26l1.53-7.76c3.72,1.04,6.31,2.75,7.75,5.08,1.65,2.64,2.01,6.38,1.06,11.21-1.1,5.58-3.33,9.3-6.71,11.18-2.91,1.64-6.87,1.97-11.84.99-5-.98-8.54-2.77-10.62-5.39-2.38-3-3.04-7.28-1.98-12.86,1.02-5.38,3.09-8.99,6.19-10.86,2.11-1.26,4.52-1.63,7.19-1.11l-1.61,8.21c-4.18-.83-6.64.72-7.36,4.63-.51,2.74.17,4.85,2.02,6.32,1.48,1.18,4.07,2.14,7.77,2.86,3.71.73,6.47.83,8.29.28,2.3-.66,3.72-2.36,4.26-5.11.86-4.17-1.12-6.72-5.93-7.66Z"/><path class="cls-4" d="m17.25,204.25l-5.79-1.78,2.44-7.99,5.79,1.77-2.45,8Zm32.89,10.05l-28.86-8.82,2.45-8,28.85,8.81-2.44,8Z"/><path class="cls-4" d="m27.38,175.95l-5.62-7.43,3.63-8.55,4.22,10.72-2.23,5.27Zm13.07,17.84c-4.67-1.99-7.77-4.47-9.25-7.46-1.74-3.44-1.51-7.77.71-13,2.25-5.27,5.2-8.48,8.89-9.6,3.19-1,7.13-.51,11.8,1.48,9.74,4.14,12.58,10.98,8.52,20.53-4.03,9.51-10.92,12.19-20.67,8.05Zm3.28-7.69c3.79,1.61,6.59,2.32,8.41,2.14,2.13-.22,3.75-1.63,4.86-4.25,1.13-2.66,1.03-4.83-.28-6.52-1.14-1.42-3.6-2.95-7.39-4.56-3.48-1.49-6.15-2.14-8.05-1.99-2.39.16-4.14,1.56-5.24,4.16-1.1,2.57-.87,4.76.67,6.6,1.2,1.46,3.54,2.94,7.02,4.42Z"/><path class="cls-4" d="m69.49,165.4l-25.78-15.66,4.1-6.76,3.01,1.84.12-.2c-1.3-3.39-.69-7.18,1.86-11.38,3.6-5.91,7.73-7.44,12.39-4.61l19.45,11.83-4.35,7.15-17.68-10.76c-1.66-1-3.09-1.36-4.25-1.04-1.18.31-2.31,1.37-3.41,3.19-.95,1.53-1.31,3.1-1.14,4.65.21,1.76,1.11,3.13,2.7,4.09l17.31,10.52-4.35,7.14Z"/><path class="cls-4" d="m100.87,118.35l-27.85-28.78,9.91-9.58,27.64,14.54.11-.11-13.74-27.99,9.68-9.37,27.85,28.77-6.01,5.82-23.17-23.95,15.07,31.78-5.4,5.21-31.25-16.1,23.16,23.95-6.01,5.81Z"/><path class="cls-4" d="m131.94,69.47c-2.83-4.23-4.04-8-3.66-11.31.42-3.83,2.99-7.33,7.7-10.49,4.76-3.19,9-4.24,12.69-3.16,3.22.91,6.24,3.48,9.07,7.71,5.89,8.79,4.52,16.07-4.1,21.85-8.59,5.74-15.82,4.21-21.7-4.59Zm6.95-4.65c2.29,3.42,4.24,5.56,5.86,6.4,1.9.99,4.02.68,6.39-.9,2.4-1.61,3.52-3.48,3.34-5.6-.17-1.82-1.39-4.44-3.69-7.87-2.09-3.14-3.98-5.15-5.64-6.06-2.09-1.17-4.31-.97-6.66.61-2.32,1.55-3.34,3.51-3.05,5.89.2,1.88,1.36,4.39,3.46,7.53Z"/><path class="cls-4" d="m171.86,61.55l-13-27.22,7.12-3.4,1.53,3.19.2-.1c.77-3.55,3.36-6.39,7.79-8.49,6.24-2.98,10.55-2,12.89,2.92l9.8,20.55-7.55,3.6-8.91-18.68c-.83-1.75-1.83-2.82-2.98-3.2-1.16-.38-2.69-.11-4.61.8-1.62.78-2.79,1.87-3.49,3.28-.79,1.58-.79,3.21.02,4.89l8.71,18.28-7.54,3.59Z"/><path class="cls-4" d="m194.07,23.25l-1.44-4.26,5.42-1.84-2.77-8.12,7.92-2.7,2.77,8.12,6.44-2.2,1.46,4.25-6.45,2.2,5.82,17.09c.38,1.14.91,1.84,1.58,2.1.66.27,1.68.18,3.04-.29,1.18-.4,2.11-.79,2.79-1.19l1.46,4.3c-1.55.89-3.62,1.78-6.21,2.66-2.89.99-5.03,1.24-6.45.77-1.65-.54-2.95-2.19-3.89-4.96l-6.06-17.78-5.43,1.86Z"/><path class="cls-4" d="m251.45,19.31l-21.25,4.65.37,1.7c1.31,5.99,4.23,8.49,8.77,7.5,2.26-.5,3.82-1.6,4.66-3.31.66-1.37.79-2.93.4-4.68l7.72-1.68c.72,3.25,0,6.11-2.12,8.59-2.13,2.48-5.42,4.19-9.85,5.17-4.39.96-7.87.88-10.43-.24-3.85-1.65-6.43-5.51-7.76-11.57-2.32-10.63,1.53-17.04,11.56-19.24,5.4-1.18,9.47-.85,12.19,1.01,2.41,1.58,4.09,4.59,5.06,9l.68,3.12Zm-22.14.59l13.08-2.86-.35-1.59c-.96-4.38-3.53-6.11-7.71-5.2-4.53.99-6.25,4.01-5.15,9.05l.13.6Z"/><path class="cls-4" d="m285.59,9.1l-7.88.62-.07-.79c-.24-3.09-2.19-4.5-5.85-4.2-3.96.32-5.82,1.78-5.62,4.38.09,1.16.57,2.01,1.44,2.56.88.55,2.46,1.01,4.78,1.39l5.43.92c3.2.53,5.58,1.41,7.12,2.64,1.55,1.22,2.42,3,2.6,5.3.24,3.05-1.02,5.5-3.77,7.33-2.46,1.66-5.93,2.67-10.4,3.02-4.99.4-8.64-.16-10.93-1.67-2.08-1.3-3.23-3.49-3.47-6.59l-.09-1.12,7.41-.58.09.95c.27,3.58,2.58,5.2,6.9,4.85,4.53-.36,6.67-2.01,6.45-4.96-.18-2.16-1.81-3.51-4.91-4.05l-6.93-1.2c-3.26-.56-5.62-1.44-7.09-2.64-1.46-1.19-2.3-2.97-2.48-5.32-.22-2.75.89-4.93,3.29-6.51,2.41-1.58,5.83-2.54,10.25-2.89,8.64-.69,13.19,1.71,13.62,7.2l.12,1.34Z"/><path class="cls-4" d="m321.13,10.25l-7.89-.38.03-.78c.15-3.1-1.6-4.74-5.26-4.92-3.97-.2-6.02,1.02-6.14,3.63-.07,1.16.31,2.07,1.1,2.72.8.66,2.31,1.33,4.57,1.99l5.26,1.61c3.11.94,5.35,2.11,6.72,3.53,1.39,1.42,2.02,3.28,1.91,5.59-.16,3.07-1.72,5.33-4.67,6.79-2.66,1.34-6.22,1.89-10.71,1.68-5-.25-8.54-1.26-10.62-3.04-1.88-1.55-2.76-3.88-2.61-6.97l.05-1.13,7.42.37-.04.95c-.18,3.58,1.91,5.48,6.24,5.7,4.53.22,6.88-1.15,7.02-4.11.11-2.17-1.35-3.71-4.35-4.65l-6.72-2.06c-3.16-.97-5.39-2.15-6.69-3.52-1.3-1.37-1.9-3.23-1.78-5.59.12-2.76,1.49-4.77,4.08-6.04,2.59-1.26,6.11-1.78,10.54-1.57,8.67.42,12.86,3.37,12.59,8.87l-.06,1.34Z"/><path class="cls-4" d="m328.47,17.27c.93-5.01,2.7-8.56,5.29-10.66,2.98-2.45,7.24-3.16,12.84-2.12,5.63,1.04,9.39,3.24,11.29,6.6,1.68,2.9,2.04,6.84,1.1,11.85-1.93,10.4-7.99,14.64-18.2,12.75-10.15-1.89-14.26-8.03-12.32-18.43Zm8.23,1.52c-.75,4.05-.85,6.94-.28,8.69.67,2.03,2.4,3.3,5.2,3.81,2.85.53,4.94-.03,6.3-1.67,1.16-1.43,2.12-4.16,2.87-8.2.69-3.71.76-6.48.21-8.3-.68-2.29-2.42-3.7-5.21-4.21-2.74-.51-4.84.19-6.3,2.08-1.16,1.5-2.09,4.1-2.78,7.81Z"/><path class="cls-4" d="m362.37,39.74l9-28.8,7.97,2.5-1.4,4.5c3.03-2.88,6.7-3.66,10.99-2.32.61.19,1.22.47,1.89.83l-1.85,5.89c-1.11-.59-2.19-1.04-3.22-1.37-5.33-1.66-8.66-.31-10.02,4.04l-5.39,17.24-7.98-2.5Z"/><path class="cls-4" d="m385.85,47.63l11.35-27.96,7.75,3.15-11.35,27.96-7.75-3.15Zm12.93-31.86l2.28-5.61,7.76,3.15-2.28,5.6-7.75-3.14Z"/><path class="cls-4" d="m436.06,73.77l1.98-3.12-.12-.09c-3,1.64-6.39,1.26-10.13-1.11-7.66-4.88-8.59-11.89-2.77-21.04,3.26-5.11,6.68-7.97,10.29-8.62,2.67-.42,5.65.41,8.95,2.5,3.93,2.51,5.84,5.42,5.7,8.75l7.19-11.31,7.05,4.49-21.47,33.8-6.66-4.24Zm7.91-12.45c2.12-3.34,3.24-5.96,3.34-7.84.11-2.29-1.1-4.23-3.62-5.83-2.06-1.3-3.91-1.54-5.58-.69-1.67.85-3.6,2.99-5.79,6.42-2.01,3.16-3.09,5.68-3.25,7.57-.16,2.3.9,4.17,3.22,5.64,2.26,1.43,4.37,1.63,6.33.58,1.66-.9,3.45-2.84,5.36-5.84Z"/><path class="cls-4" d="m480.49,90.93l-16.5-14.19-1.14,1.32c-3.99,4.65-4.24,8.49-.7,11.52,1.75,1.52,3.57,2.08,5.44,1.73,1.49-.3,2.81-1.14,3.99-2.49l5.98,5.14c-2.17,2.53-4.89,3.68-8.14,3.47-3.26-.21-6.61-1.8-10.05-4.76-3.4-2.93-5.43-5.75-6.08-8.48-1-4.06.52-8.45,4.57-13.16,7.09-8.25,14.53-9.02,22.32-2.33,4.19,3.6,6.36,7.05,6.52,10.34.19,2.87-1.2,6.03-4.14,9.45l-2.08,2.43Zm-13.8-17.33l10.17,8.73,1.05-1.23c2.92-3.4,2.76-6.5-.49-9.29-3.53-3.03-6.97-2.59-10.33,1.33l-.4.46Z"/><path class="cls-4" d="m489.44,120.43l32.84-22.88,7.88,11.3-18.78,24.96.09.12,29.84-9.07,7.69,11.06-32.87,22.88-4.77-6.86,27.33-19.04-33.76,9.8-4.3-6.17,20.9-28.28-27.33,19.04-4.77-6.86Z"/><path class="cls-4" d="m544.72,187.17l-9.01-19.79-1.6.72c-5.57,2.55-7.4,5.92-5.48,10.15.96,2.12,2.38,3.4,4.24,3.87,1.46.34,3.01.15,4.65-.6l3.27,7.18c-3.03,1.38-5.97,1.29-8.83-.26-2.88-1.56-5.25-4.4-7.14-8.54-1.86-4.08-2.51-7.51-1.96-10.26.8-4.11,4.03-7.44,9.67-10.02,9.91-4.52,16.99-2.1,21.25,7.24,2.29,5.03,2.81,9.07,1.58,12.13-1.03,2.68-3.62,4.96-7.74,6.84l-2.91,1.32Zm-5.24-21.52l5.56,12.18,1.47-.67c4.08-1.86,5.24-4.74,3.46-8.64-1.93-4.23-5.24-5.27-9.94-3.12l-.56.25Zm15.65-3.39l9.27.88,3.86,8.45-10.75-4.12-2.37-5.21Z"/><path class="cls-4" d="m532.91,196.03l18.26,6.42,10.82-14.47,2.62,8.75-7.69,9.1,11.52,3.66,2.58,8.6-17.05-6.21-11.74,15.32-2.6-8.68,8.6-10.17-12.79-3.77-2.54-8.53Z"/><path class="cls-4" d="m542.77,231.84l29.62-5.75,1.6,8.21-29.63,5.75-1.59-8.21Zm33.75-6.55l5.94-1.15,1.59,8.21-5.95,1.15-1.58-8.21Z"/><path class="cls-4" d="m558.78,267.55l.71,7.87c-3.87.03-6.82-.86-8.87-2.71-2.34-2.07-3.71-5.56-4.15-10.45-.52-5.67.59-9.87,3.3-12.61,2.33-2.4,6.03-3.83,11.11-4.28,5.06-.46,8.95.28,11.69,2.21,3.13,2.2,4.95,6.13,5.51,11.78.53,5.45-.45,9.49-2.9,12.16-1.67,1.81-3.88,2.84-6.59,3.08l-.76-8.33c4.25-.38,6.18-2.55,5.78-6.51-.28-2.77-1.52-4.61-3.71-5.5-1.75-.72-4.51-.91-8.28-.56-3.76.33-6.43,1.02-8.02,2.06-2.02,1.28-2.91,3.3-2.67,6.1.36,4.25,2.97,6.15,7.85,5.7Z"/><path class="cls-4" d="m563.74,281.72c5.07.23,8.83,1.5,11.27,3.78,2.84,2.61,4.13,6.75,3.86,12.42-.26,5.74-1.92,9.76-4.98,12.1-2.64,2.05-6.51,2.95-11.57,2.72-10.58-.48-15.62-5.92-15.13-16.27.46-10.32,5.99-15.23,16.57-14.74Zm-.4,8.36c-4.11-.2-6.99.11-8.62.91-1.91.95-2.95,2.83-3.07,5.67-.13,2.89.71,4.89,2.53,6.01,1.56.95,4.41,1.52,8.5,1.71,3.78.18,6.52-.13,8.24-.94,2.18-.98,3.34-2.89,3.46-5.73.13-2.78-.83-4.76-2.91-5.95-1.64-.95-4.35-1.52-8.13-1.69Z"/><path class="cls-4" d="m545.14,329.51l34.7,25.42-2.88,10.93-42.44,3.85,2.36-8.9,10.36-.79,4.13-15.64-8.59-5.95,2.36-8.91Zm10.74,17.73l-3.33,12.66,20.71-1.1.05-.15-17.42-11.41Z"/><path class="cls-4" d="m532.32,373.37l6.89,2.71-3.23,8.21-6.9-2.7,3.24-8.21Z"/><path class="cls-4" d="m526.52,419.4l-4.17,7.79-.75-.4c-3.63-1.94-5.95-4.56-6.98-7.87-1.25-3.94-.44-8.58,2.41-13.91,3.21-6.01,6.95-9.42,11.2-10.25,4.01-.84,9.25.48,15.75,3.94,6.5,3.47,10.51,7.11,12.04,10.91,1.65,4.05.87,9.07-2.34,15.08-5.23,9.79-11.54,12.71-18.92,8.77l-.65-.35,4.17-7.79.58.32c4.65,2.49,8.19,1.4,10.6-3.29,1.58-3.03,1.79-5.6.64-7.73-1.31-2.46-4.7-5.15-10.13-8.05-5.48-2.92-9.63-4.27-12.47-4.03-2.55.17-4.62,1.75-6.23,4.76-2.58,4.82-1.03,8.75,4.64,11.78l.61.32Z"/><path class="cls-4" d="m506.33,424.45l6.1,4.19-4.99,7.28-6.1-4.18,4.99-7.28Z"/></g></g></g></svg>